<svg width="116" height="38" viewBox="0 0 116 38" fill="none" xmlns="http://www.w3.org/2000/svg" preserveAspectRatio="xMidYMid meet" style="shape-rendering: geometricprecision; text-rendering: geometricprecision;"><circle cx="16.8977" cy="19.8977" r="12.8977" fill="#C1EF00"></circle><path d="M29.6611 0.698316C29.7298 1.19881 29.7904 1.70001 29.8487 2.20168C29.9031 2.66925 29.959 3.13624 30.0234 3.60267C30.0462 3.76824 30.0688 3.93382 30.0914 4.09941C30.0991 4.15427 30.1067 4.20913 30.1146 4.26564C30.1535 4.5523 30.1856 4.83755 30.2069 5.12584C30.2371 5.52565 30.2879 5.92191 30.3403 6.31956C30.4237 6.95305 30.5014 7.586 30.561 8.22192C30.5922 8.54766 30.6363 8.87003 30.6865 9.19356C30.7492 9.60265 30.7911 10.0133 30.8331 10.4247C30.8488 10.5759 30.8658 10.7269 30.883 10.878C30.9078 11.0967 30.9307 11.3154 30.9521 11.5344C30.9594 11.6075 30.9667 11.6806 30.9741 11.7537C30.9797 11.8099 30.9854 11.8662 30.9912 11.9242C30.5402 11.8902 30.163 11.7246 29.7837 11.4772C29.6291 11.3839 29.474 11.3268 29.3043 11.27C29.0717 11.1915 28.8575 11.0805 28.6438 10.9591C28.4424 10.8478 28.2558 10.7616 28.0335 10.7053C27.8496 10.791 27.8053 10.9291 27.7347 11.1147C27.6996 11.2063 27.6626 11.2972 27.622 11.3864C27.5897 11.399 27.5574 11.4116 27.5241 11.4246C27.5233 11.4583 27.5225 11.4921 27.5216 11.5268C27.5019 11.6837 27.4574 11.8013 27.3869 11.9409C27.3546 11.9535 27.3222 11.9661 27.2889 11.9791C27.2881 12.0128 27.2873 12.0466 27.2865 12.0813C27.2668 12.2382 27.2223 12.3558 27.1517 12.4955C27.1194 12.5081 27.0871 12.5207 27.0538 12.5336C27.053 12.5674 27.0521 12.6011 27.0513 12.6358C27.0316 12.7927 26.9871 12.9103 26.9166 13.05C26.8842 13.0626 26.8519 13.0752 26.8186 13.0882C26.8168 13.1396 26.8168 13.1396 26.8149 13.192C26.7977 13.3378 26.7592 13.4442 26.702 13.5779C26.6812 13.6268 26.6605 13.6756 26.6392 13.7259C26.6166 13.7781 26.594 13.8304 26.5708 13.8842C26.5476 13.9385 26.5245 13.9927 26.5007 14.0486C26.4267 14.2219 26.3523 14.3951 26.2778 14.5682C26.2282 14.6844 26.1785 14.8006 26.1289 14.9168C26.0177 15.177 25.9063 15.437 25.7945 15.6969C25.7482 15.8053 25.7025 15.914 25.6571 16.0228C25.5938 16.1691 25.5938 16.1691 25.5111 16.3099C25.4237 16.472 25.3679 16.63 25.3133 16.8062C25.2582 16.9676 25.1907 17.1219 25.1235 17.2782C25.0962 17.3446 25.069 17.411 25.0419 17.4775C25.0142 17.5445 24.9865 17.6116 24.9588 17.6787C24.9448 17.7132 24.9309 17.7477 24.9165 17.7832C24.8803 17.8702 24.8405 17.9556 24.8002 18.0406C24.7678 18.0533 24.7355 18.0659 24.7022 18.0788C24.7013 18.1126 24.7003 18.1464 24.6994 18.1812C24.6803 18.3363 24.6341 18.4512 24.5711 18.5928C24.5508 18.6389 24.5306 18.685 24.5097 18.7325C24.4891 18.7786 24.4686 18.8248 24.4474 18.8724C24.4275 18.9232 24.4076 18.9739 24.387 19.0262C24.3298 19.1497 24.3298 19.1497 24.2319 19.1879C24.2311 19.2216 24.2303 19.2553 24.2294 19.2901C24.2098 19.447 24.1652 19.5645 24.0947 19.7042C24.0624 19.7168 24.03 19.7294 23.9967 19.7424C23.997 19.7734 23.9972 19.8044 23.9974 19.8364C23.9694 20.0368 23.8894 20.2084 23.8087 20.3906C23.7932 20.4263 23.7777 20.462 23.7617 20.4988C23.731 20.5696 23.7001 20.6403 23.6691 20.711C23.5863 20.9003 23.5042 21.0898 23.4302 21.2831C23.3892 21.3678 23.3892 21.3678 23.2913 21.406C23.29 21.4566 23.29 21.4566 23.2888 21.5082C23.2691 21.6651 23.2246 21.7826 23.1541 21.9223C23.1217 21.9349 23.0894 21.9475 23.0561 21.9605C23.0549 22.0111 23.0549 22.0111 23.0536 22.0627C23.034 22.2196 22.9895 22.3371 22.9189 22.4768C22.8866 22.4894 22.8543 22.502 22.821 22.515C22.8197 22.5656 22.8197 22.5656 22.8185 22.6172C22.7988 22.7741 22.7543 22.8917 22.6837 23.0313C22.6514 23.0439 22.6191 23.0565 22.5858 23.0695C22.587 23.1174 22.587 23.1174 22.5882 23.1662C22.5636 23.325 22.5011 23.4345 22.423 23.5716C22.3479 23.7176 22.3011 23.8703 22.2507 24.0268C22.1123 24.4482 22.1123 24.4482 21.9391 24.5944C21.952 24.6276 21.965 24.6607 21.9783 24.6949C21.9459 24.7075 21.9136 24.7201 21.8803 24.7331C21.8815 24.7809 21.8815 24.7809 21.8828 24.8298C21.8578 24.9908 21.7936 25.1042 21.7138 25.2432C21.6552 25.349 21.6552 25.349 21.6096 25.522C21.5955 25.5693 21.5813 25.6166 21.5667 25.6653C21.5344 25.6779 21.5021 25.6905 21.4688 25.7035C21.4691 25.7535 21.4691 25.7535 21.4694 25.8045C21.4439 25.9784 21.3687 26.0878 21.2826 26.2389C21.2345 26.3699 21.195 26.5016 21.1552 26.6357C20.9357 26.6302 20.7581 26.549 20.5605 26.4572C20.5247 26.4409 20.4888 26.4246 20.4519 26.4077C20.3319 26.353 20.212 26.2977 20.0922 26.2425C20.0061 26.2031 19.9201 26.1638 19.834 26.1245C19.6487 26.0398 19.4634 25.9549 19.2783 25.8699C18.9856 25.7355 18.6927 25.6017 18.3997 25.468C17.5665 25.0877 16.7338 24.7067 15.9013 24.325C15.4415 24.1142 14.9815 23.9039 14.5212 23.6942C14.2298 23.5613 13.9387 23.4278 13.6478 23.2939C13.4668 23.2108 13.2857 23.1283 13.1044 23.0459C13.0203 23.0075 12.9363 22.9689 12.8525 22.9301C12.7381 22.8771 12.6233 22.8251 12.5085 22.7732C12.4753 22.7576 12.442 22.742 12.4078 22.7259C12.2135 22.6394 12.0823 22.6046 11.8807 22.6728C11.7603 22.7976 11.7603 22.7976 11.6541 22.96C11.6122 23.0196 11.5703 23.0792 11.5283 23.1388C11.5072 23.1694 11.486 23.2 11.4642 23.2315C11.3651 23.3738 11.2619 23.5128 11.1588 23.6521C11.119 23.7059 11.0793 23.7598 11.0384 23.8152C10.891 24.0124 10.74 24.2065 10.5886 24.4005C10.2853 24.7914 9.98792 25.1871 9.69482 25.5861C9.33788 26.071 8.97279 26.5496 8.60928 27.0294C8.46833 27.2155 8.32754 27.4017 8.18677 27.5879C8.10533 27.6956 8.0239 27.8032 7.94247 27.9109C7.902 27.9645 7.902 27.9645 7.86071 28.0191C7.68963 28.2453 7.51845 28.4715 7.34714 28.6976C6.81067 29.4058 6.81067 29.4058 6.28123 30.1196C6.08594 30.3831 5.88733 30.6441 5.68919 30.9054C5.51392 31.1368 5.33997 31.3691 5.16822 31.6032C4.95852 31.8887 4.7431 32.1693 4.52595 32.4488C4.37209 32.6473 4.22216 32.8483 4.07487 33.0519C3.8957 33.2985 3.71013 33.5401 3.52567 33.7825C3.4703 33.8553 3.41501 33.9282 3.3598 34.0012C3.27298 34.1158 3.18588 34.2303 3.09871 34.3446C3.07134 34.3809 3.04398 34.4171 3.01579 34.4544C2.82028 34.7099 2.82028 34.7099 2.71115 34.7525C2.72407 34.7856 2.737 34.8187 2.75031 34.8529C2.72854 34.8784 2.70677 34.9039 2.68434 34.9301C2.04785 35.6885 1.44534 36.4927 0.888976 37.3142C0.850192 37.3103 0.811407 37.3063 0.771447 37.3022C0.852138 37.1064 0.933583 36.9109 1.01518 36.7154C1.03819 36.6595 1.0612 36.6037 1.08491 36.5461C1.10714 36.493 1.12937 36.44 1.15228 36.3853C1.1727 36.3362 1.19312 36.287 1.21416 36.2364C1.27116 36.1239 1.27115 36.1239 1.3691 36.0857C1.37032 36.0351 1.37032 36.0351 1.37157 35.9835C1.39125 35.8266 1.43576 35.709 1.50631 35.5693C1.53863 35.5567 1.57096 35.5441 1.60426 35.5311C1.60548 35.4806 1.60548 35.4806 1.60673 35.4289C1.6264 35.272 1.67091 35.1545 1.74147 35.0148C1.77379 35.0022 1.80612 34.9896 1.83942 34.9766C1.84023 34.9429 1.84105 34.9092 1.84188 34.8744C1.86156 34.7175 1.90607 34.6 1.97663 34.4603C2.00895 34.4477 2.04127 34.4351 2.07457 34.4221C2.07539 34.3884 2.0762 34.3546 2.07704 34.3199C2.09672 34.163 2.14123 34.0454 2.21178 33.9058C2.24411 33.8932 2.27643 33.8806 2.30973 33.8676C2.31055 33.8339 2.31136 33.8001 2.3122 33.7654C2.33187 33.6085 2.37638 33.4909 2.44694 33.3513C2.47926 33.3387 2.51159 33.326 2.54489 33.3131C2.5457 33.2793 2.54652 33.2456 2.54735 33.2109C2.56703 33.054 2.61154 32.9364 2.6821 32.7967C2.71442 32.7841 2.74674 32.7715 2.78005 32.7585C2.78127 32.708 2.78127 32.708 2.78251 32.6563C2.80219 32.4994 2.8467 32.3819 2.91725 32.2422C2.94958 32.2296 2.9819 32.217 3.0152 32.204C3.01642 32.1534 3.01642 32.1534 3.01767 32.1018C3.03734 31.9449 3.08186 31.8274 3.15241 31.6877C3.18473 31.6751 3.21706 31.6625 3.25036 31.6495C3.25158 31.5989 3.25158 31.5989 3.25282 31.5473C3.2725 31.3904 3.31701 31.2728 3.38757 31.1332C3.41989 31.1206 3.45221 31.108 3.48552 31.095C3.48674 31.0444 3.48674 31.0444 3.48798 30.9928C3.50766 30.8359 3.55217 30.7183 3.62272 30.5787C3.65505 30.5661 3.68737 30.5534 3.72067 30.5405C3.72189 30.4899 3.72189 30.4899 3.72314 30.4383C3.74281 30.2814 3.78733 30.1638 3.85788 30.0241C3.8902 30.0115 3.92253 29.9989 3.95583 29.9859C3.95553 29.9553 3.95523 29.9247 3.95493 29.8932C3.98411 29.6852 4.06448 29.5091 4.14693 29.3184C4.16285 29.2802 4.17876 29.2419 4.19516 29.2024C4.31578 28.9199 4.31578 28.9199 4.42614 28.8769C4.42736 28.8263 4.42736 28.8263 4.42861 28.7747C4.44829 28.6178 4.4928 28.5002 4.56335 28.3606C4.59567 28.348 4.628 28.3354 4.6613 28.3224C4.66252 28.2718 4.66252 28.2718 4.66377 28.2202C4.68344 28.0633 4.72795 27.9457 4.79851 27.8061C4.83083 27.7935 4.86315 27.7808 4.89646 27.7679C4.89768 27.7173 4.89768 27.7173 4.89892 27.6657C4.9186 27.5088 4.96311 27.3912 5.03366 27.2515C5.06599 27.2389 5.09831 27.2263 5.13161 27.2133C5.13283 27.1628 5.13283 27.1628 5.13408 27.1111C5.15376 26.9542 5.19827 26.8367 5.26882 26.697C5.30114 26.6844 5.33347 26.6718 5.36677 26.6588C5.36799 26.6082 5.36799 26.6082 5.36924 26.5566C5.38891 26.3997 5.43342 26.2822 5.50398 26.1425C5.5363 26.1299 5.56863 26.1173 5.60193 26.1043C5.60315 26.0537 5.60315 26.0537 5.60439 26.0021C5.62407 25.8452 5.66858 25.7276 5.73914 25.588C5.77146 25.5754 5.80378 25.5628 5.83708 25.5498C5.83831 25.4992 5.83831 25.4992 5.83955 25.4476C5.85923 25.2907 5.90374 25.1731 5.97429 25.0335C6.00662 25.0209 6.03894 25.0082 6.07224 24.9953C6.07346 24.9447 6.07346 24.9447 6.07471 24.8931C6.09438 24.7362 6.13889 24.6186 6.20945 24.4789C6.24177 24.4663 6.2741 24.4537 6.3074 24.4407C6.30821 24.407 6.30903 24.3733 6.30986 24.3385C6.32954 24.1816 6.37405 24.0641 6.44461 23.9244C6.47693 23.9118 6.50925 23.8992 6.54256 23.8862C6.54337 23.8525 6.54418 23.8188 6.54502 23.784C6.5647 23.6271 6.60921 23.5096 6.67976 23.3699C6.71209 23.3573 6.74441 23.3447 6.77771 23.3317C6.78419 23.2528 6.79067 23.1739 6.79734 23.0926C6.82966 23.08 6.86199 23.0674 6.89529 23.0544C6.90177 22.9756 6.90825 22.8967 6.91492 22.8154C6.94724 22.8028 6.97957 22.7902 7.01287 22.7772C7.01368 22.7435 7.0145 22.7097 7.01533 22.675C7.03501 22.5181 7.07952 22.4005 7.15008 22.2609C7.1824 22.2483 7.21472 22.2356 7.24803 22.2227C7.24884 22.1889 7.24965 22.1552 7.25049 22.1205C7.27017 21.9636 7.31468 21.846 7.38523 21.7063C7.41756 21.6937 7.44988 21.6811 7.48318 21.6681C7.484 21.6344 7.48481 21.6007 7.48565 21.5659C7.50532 21.409 7.54984 21.2915 7.62039 21.1518C7.65271 21.1392 7.68504 21.1266 7.71834 21.1136C7.71804 21.083 7.71774 21.0524 7.71744 21.0209C7.74662 20.8129 7.82699 20.6367 7.90944 20.4461C7.92536 20.4078 7.94127 20.3696 7.95767 20.3301C8.07829 20.0476 8.07829 20.0476 8.18865 20.0046C8.18947 19.9709 8.19028 19.9371 8.19112 19.9024C8.21079 19.7455 8.25531 19.6279 8.32586 19.4883C8.35818 19.4757 8.39051 19.4631 8.42381 19.4501C8.42462 19.4163 8.42544 19.3826 8.42628 19.3479C8.44595 19.191 8.49046 19.0734 8.56102 18.9337C8.59334 18.9211 8.62566 18.9085 8.65897 18.8955C8.65989 18.8464 8.65989 18.8464 8.66084 18.7963C8.68266 18.6245 8.73868 18.4898 8.80567 18.3312C8.83169 18.2696 8.85771 18.208 8.88452 18.1445C8.91195 18.0806 8.93938 18.0167 8.96765 17.9508C8.99478 17.886 9.02191 17.8213 9.04986 17.7546C9.07598 17.6933 9.1021 17.632 9.12901 17.5688C9.153 17.5124 9.17699 17.456 9.20171 17.398C9.26649 17.2702 9.26649 17.2702 9.36444 17.232C9.37092 17.1531 9.37739 17.0742 9.38407 16.9929C9.41639 16.9803 9.44871 16.9677 9.48202 16.9547C9.48849 16.8758 9.49497 16.7969 9.50165 16.7157C9.53397 16.7031 9.56629 16.6905 9.59959 16.6775C9.59637 16.6214 9.59315 16.5654 9.58983 16.5077C10.037 16.6593 10.4634 16.8578 10.8935 17.0542C10.9784 17.0929 11.0634 17.1315 11.1484 17.1702C11.3306 17.253 11.5128 17.336 11.6949 17.419C11.9828 17.5503 12.2707 17.6813 12.5587 17.8122C13.1694 18.0899 13.78 18.368 14.3905 18.646C15.0509 18.9468 15.7113 19.2475 16.3718 19.5478C16.6583 19.6781 16.9447 19.8085 17.2311 19.9391C17.4087 20.02 17.5864 20.1009 17.7641 20.1816C17.8467 20.2192 17.9293 20.2569 18.0119 20.2946C18.1242 20.3459 18.2367 20.397 18.3491 20.448C18.4121 20.4767 18.4751 20.5054 18.54 20.535C18.6799 20.6022 18.6799 20.6022 18.8056 20.6093C18.805 20.563 18.805 20.563 18.8044 20.5157C18.8333 20.3138 18.9041 20.1315 19.0016 19.9543C19.0339 19.9417 19.0662 19.9291 19.0995 19.9161C19.1002 19.8831 19.1009 19.8502 19.1015 19.8162C19.1229 19.6475 19.1775 19.5177 19.2445 19.3626C19.2703 19.3024 19.2961 19.2422 19.3227 19.1802C19.3499 19.1176 19.3771 19.0551 19.4052 18.9906C19.4319 18.9285 19.4586 18.8663 19.4861 18.8023C19.5362 18.686 19.5864 18.5697 19.6367 18.4535C19.7734 18.1392 19.7734 18.1392 19.9012 17.8209C19.9422 17.7362 19.9422 17.7362 20.0402 17.698C20.0397 17.6521 20.0397 17.6521 20.0393 17.6053C20.0685 17.3973 20.1488 17.2211 20.2313 17.0305C20.2472 16.9922 20.2631 16.954 20.2795 16.9145C20.4001 16.632 20.4001 16.632 20.5105 16.589C20.5116 16.5536 20.5127 16.5183 20.5139 16.4819C20.5309 16.3436 20.5638 16.2692 20.6324 16.1509C20.7499 15.937 20.8265 15.7189 20.8993 15.4851C20.9133 15.4502 20.9272 15.4154 20.9416 15.3795C20.974 15.3669 21.0063 15.3543 21.0396 15.3413C21.0394 15.308 21.0392 15.2747 21.039 15.2403C21.0645 15.0664 21.1397 14.957 21.2258 14.8059C21.2499 14.7349 21.2725 14.6633 21.2938 14.5914C21.3134 14.5312 21.333 14.4711 21.3532 14.4091C21.3855 14.3965 21.4178 14.3839 21.4511 14.3709C21.4508 14.3403 21.4505 14.3097 21.4502 14.2782C21.4794 14.0702 21.5598 13.894 21.6422 13.7034C21.6581 13.6651 21.674 13.6268 21.6904 13.5874C21.8111 13.3049 21.8111 13.3049 21.9214 13.2619C21.9222 13.2281 21.9231 13.1944 21.9239 13.1597C21.9436 13.0028 21.9881 12.8852 22.0586 12.7455C22.091 12.7329 22.1233 12.7203 22.1566 12.7073C22.1563 12.6763 22.1561 12.6453 22.1559 12.6134C22.184 12.413 22.2639 12.2413 22.3446 12.0591C22.3601 12.0234 22.3756 11.9877 22.3916 11.951C22.4225 11.8799 22.4535 11.8088 22.4846 11.7379C22.5497 11.5891 22.6128 11.4395 22.6759 11.2899C22.7103 11.209 22.7103 11.209 22.7453 11.1265C22.8172 10.9567 22.8887 10.7867 22.96 10.6167C23.0119 10.4935 23.0637 10.3703 23.1156 10.2471C23.1416 10.185 23.1676 10.1229 23.1943 10.059C23.2323 9.96892 23.2323 9.96892 23.2711 9.87706C23.3053 9.79558 23.3053 9.79558 23.3402 9.71245C23.4112 9.55604 23.4926 9.40952 23.5773 9.26069C23.6185 9.14959 23.6185 9.14959 23.6453 9.04616C23.6649 8.98601 23.6845 8.92587 23.7047 8.8639C23.7371 8.8513 23.7694 8.83869 23.8027 8.82571C23.5931 8.66316 23.417 8.56962 23.1661 8.49536C23.0512 8.44502 22.937 8.39296 22.8233 8.33973C22.7814 8.32161 22.7395 8.30349 22.6964 8.28482C22.6528 8.26585 22.6093 8.24688 22.5644 8.22734C22.5234 8.20969 22.4824 8.19203 22.4402 8.17385C22.3434 8.12185 22.3434 8.12185 22.3043 8.02141C22.2712 8.01991 22.2381 8.01842 22.204 8.01689C22.05 7.99456 21.9346 7.9443 21.7932 7.87717C21.7236 7.84446 21.7236 7.84446 21.6526 7.81108C21.6091 7.79037 21.5656 7.76967 21.5208 7.74834C21.482 7.73234 21.4433 7.71635 21.4034 7.69987C21.3151 7.65496 21.3151 7.65496 21.276 7.55452C21.2428 7.55311 21.2097 7.55171 21.1756 7.55027C21.0212 7.52755 20.905 7.48021 20.7667 7.40595C20.7538 7.37281 20.7408 7.33966 20.7275 7.30551C20.7657 7.27721 20.8039 7.24892 20.8432 7.21976C20.986 7.11386 21.1288 7.00793 21.2716 6.90198C21.3332 6.8563 21.3948 6.81062 21.4564 6.76496C21.5454 6.69899 21.6344 6.63298 21.7233 6.56697C21.8034 6.50756 21.8034 6.50756 21.8852 6.44695C22.0391 6.33165 22.1916 6.21453 22.3438 6.09681C22.6736 5.847 23.0016 5.59875 23.3551 5.38386C23.4546 5.31931 23.4546 5.31931 23.5444 5.2278C23.686 5.09426 23.8414 4.98425 23.9998 4.87259C24.0296 4.85144 24.0594 4.8303 24.09 4.80851C24.2349 4.70554 24.38 4.603 24.5257 4.50123C24.6822 4.38898 24.8316 4.26885 24.9812 4.14735C25.2548 3.92579 25.536 3.71744 25.8212 3.51161C26.2504 3.19993 26.6755 2.88324 27.0977 2.56194C27.5314 2.23202 27.9698 1.91015 28.4139 1.59479C28.7142 1.38074 29.007 1.15872 29.2939 0.926615C29.4152 0.829154 29.5153 0.755125 29.6611 0.698316Z" fill="#1A1E1A"></path><path d="M94.1356 9.05225C94.6229 11.2345 95.1102 13.4484 95.5975 15.6942C96.0848 17.94 96.5615 20.1646 97.0276 22.368C97.5148 20.1646 98.0021 17.94 98.4894 15.6942C98.9979 13.4484 99.4852 11.2345 99.9513 9.05225C100.778 9.05225 101.614 9.05225 102.462 9.05225C103.309 9.05225 104.146 9.05225 104.972 9.05225C105.481 11.2345 105.989 13.4379 106.498 15.6624C107.006 17.887 107.515 20.101 108.023 22.3044C108.511 20.101 108.987 17.887 109.453 15.6624C109.941 13.4379 110.417 11.2345 110.884 9.05225C111.731 9.05225 112.578 9.05225 113.426 9.05225C114.295 9.05225 115.153 9.05225 116 9.05225C115.216 12.6116 114.432 16.2133 113.648 19.8574C112.864 23.5014 112.081 27.1032 111.297 30.6625C110.259 30.6625 109.199 30.6625 108.119 30.6625C107.059 30.6625 106 30.6625 104.941 30.6625C104.496 28.6921 104.04 26.7112 103.574 24.7197C103.108 22.707 102.653 20.7154 102.208 18.7451C101.784 20.7154 101.35 22.707 100.905 24.7197C100.46 26.7112 100.025 28.6921 99.6017 30.6625C98.5636 30.6625 97.5148 30.6625 96.4555 30.6625C95.4174 30.6625 94.3792 30.6625 93.3411 30.6625C92.5572 27.1032 91.7733 23.5014 90.9894 19.8574C90.2055 16.2133 89.4216 12.6116 88.6377 9.05225C89.5487 9.05225 90.4597 9.05225 91.3708 9.05225C92.303 9.05225 93.2246 9.05225 94.1356 9.05225Z" fill="#1A1E1A"></path><path d="M72.9395 30.6625C72.9395 27.1032 72.9395 23.5014 72.9395 19.8574C72.9395 16.2133 72.9395 12.6116 72.9395 9.05225C74.2106 9.05225 75.4818 9.05225 76.753 9.05225C78.0454 9.05225 79.3272 9.05225 80.5984 9.05225C82.2086 9.05225 83.6175 9.35945 84.8251 9.97386C86.0327 10.5671 86.9649 11.4145 87.6217 12.5162C88.2997 13.5968 88.6387 14.8679 88.6387 16.3298C88.6387 17.5798 88.3844 18.6921 87.8759 19.6667C87.3675 20.6413 86.6789 21.4358 85.8103 22.0502C86.6577 23.4697 87.5052 24.9104 88.3526 26.3722C89.2213 27.8129 90.0793 29.243 90.9268 30.6625C89.8887 30.6625 88.8505 30.6625 87.8124 30.6625C86.7742 30.6625 85.7361 30.6625 84.698 30.6625C84.0412 29.476 83.3738 28.2684 82.6958 27.0396C82.0391 25.8108 81.3717 24.6031 80.6937 23.4167C80.3335 23.4167 79.9628 23.4167 79.5814 23.4167C79.2213 23.4167 78.8611 23.4167 78.5009 23.4167C78.5009 24.6031 78.5009 25.8108 78.5009 27.0396C78.5009 28.2684 78.5009 29.476 78.5009 30.6625C77.5899 30.6625 76.6683 30.6625 75.7361 30.6625C74.8039 30.6625 73.8717 30.6625 72.9395 30.6625ZM80.5984 14.0734C80.2594 14.0734 79.9098 14.0734 79.5496 14.0734C79.2107 14.0734 78.8611 14.0734 78.5009 14.0734C78.5009 14.8574 78.5009 15.6413 78.5009 16.4252C78.5009 17.2091 78.5009 17.993 78.5009 18.7769C78.9035 18.7769 79.306 18.7769 79.7085 18.7769C80.1111 18.7769 80.5136 18.7769 80.9162 18.7769C81.5518 18.7769 82.0708 18.5544 82.4734 18.1095C82.8759 17.6434 83.0772 17.0819 83.0772 16.4252C83.0772 15.7472 82.8547 15.1857 82.4098 14.7408C81.9861 14.2959 81.3823 14.0734 80.5984 14.0734Z" fill="#1A1E1A"></path><path d="M70.8977 29.5176C68.6943 30.4074 66.6392 30.9159 64.7324 31.043C62.8468 31.1913 61.1413 31.0218 59.6159 30.5345C58.0905 30.026 56.7875 29.2633 55.707 28.2464C54.6265 27.2294 53.8002 26.0218 53.2282 24.6235C52.6561 23.2252 52.3701 21.6997 52.3701 20.0472C52.3701 18.4158 52.6349 16.9116 53.1646 15.5345C53.6943 14.1362 54.4676 12.9285 55.4845 11.9116C56.5227 10.8946 57.7727 10.1001 59.2345 9.52809C60.6964 8.95606 62.3596 8.68063 64.224 8.70182C66.0884 8.70182 68.1329 9.0408 70.3575 9.71877C70.3575 10.6086 70.3575 11.509 70.3575 12.4201C70.3575 13.3099 70.3575 14.1997 70.3575 15.0896C68.599 14.3904 66.9676 13.9879 65.4634 13.8819C63.9803 13.776 62.6774 13.9349 61.5545 14.3586C60.4528 14.7823 59.5841 15.4603 58.9485 16.3925C58.3341 17.3035 58.0269 18.4476 58.0269 19.8247C58.0269 21.0324 58.2494 22.1023 58.6943 23.0345C59.1604 23.9667 59.8066 24.6976 60.6329 25.2273C61.4591 25.757 62.4019 26.0218 63.4613 26.0218C63.8214 26.0218 64.1816 26.0112 64.5418 25.99C64.9019 25.9476 65.2515 25.8841 65.5905 25.7993C65.5905 25.2485 65.5905 24.687 65.5905 24.115C65.5905 23.543 65.5905 22.9815 65.5905 22.4307C64.9973 22.4307 64.4041 22.4307 63.8108 22.4307C63.2176 22.4307 62.6244 22.4307 62.0312 22.4307C62.0312 21.6468 62.0312 20.8629 62.0312 20.079C62.0312 19.2739 62.0312 18.4794 62.0312 17.6955C63.493 17.6955 64.9655 17.6955 66.4486 17.6955C67.9528 17.6955 69.4359 17.6955 70.8977 17.6955C70.8977 19.6447 70.8977 21.615 70.8977 23.6065C70.8977 25.5981 70.8977 27.5684 70.8977 29.5176Z" fill="#1A1E1A"></path><path d="M36.833 30.6625C36.833 29.8362 36.833 28.9993 36.833 28.1519C36.833 27.2832 36.833 26.4357 36.833 25.6095C37.6805 24.8044 38.5279 23.9887 39.3754 23.1624C40.2229 22.315 41.0703 21.4887 41.9178 20.6836C42.8924 19.7302 43.6339 18.9675 44.1424 18.3955C44.6508 17.8022 45.0004 17.3044 45.1911 16.9018C45.403 16.4993 45.5089 16.1285 45.5089 15.7895C45.5089 15.0904 45.1063 14.5925 44.3013 14.2959C43.4962 13.9781 42.458 13.8827 41.1868 14.0099C39.9156 14.137 38.5597 14.4866 37.119 15.0586C37.119 14.1899 37.119 13.3107 37.119 12.4209C37.119 11.5099 37.119 10.62 37.119 9.75137C39.2377 9.05221 41.1551 8.70264 42.8712 8.70264C44.6085 8.70264 46.0915 8.98865 47.3203 9.56069C48.5703 10.1115 49.5237 10.8848 50.1805 11.8806C50.8585 12.8764 51.1975 14.031 51.1975 15.3446C51.1975 16.6582 50.8479 17.8976 50.1487 19.0628C49.4496 20.2069 48.3797 21.4781 46.939 22.8764C46.4729 23.3213 46.0068 23.7768 45.5407 24.2429C45.0746 24.709 44.6085 25.1646 44.1424 25.6095C45.2864 25.6095 46.4305 25.6095 47.5746 25.6095C48.7398 25.6095 49.8945 25.6095 51.0386 25.6095C51.0386 26.4357 51.0386 27.2832 51.0386 28.1519C51.0386 28.9993 51.0386 29.8362 51.0386 30.6625C48.6869 30.6625 46.314 30.6625 43.9199 30.6625C41.547 30.6625 39.1847 30.6625 36.833 30.6625Z" fill="#1A1E1A"></path></svg>
